<?xml version="1.0" standalone="no"?>
<!DOCTYPE svg PUBLIC "-//W3C//DTD SVG 20010904//EN"
 "http://www.w3.org/TR/2001/REC-SVG-20010904/DTD/svg10.dtd">
<svg version="1.0" xmlns="http://www.w3.org/2000/svg"
 width="1600.000000pt" height="1600.000000pt" viewBox="0 0 1600.000000 1600.000000"
 preserveAspectRatio="xMidYMid meet">
<metadata>
Created by potrace 1.11, written by Peter Selinger 2001-2013
</metadata>
<g transform="translate(0.000000,1600.000000) scale(0.100000,-0.100000)"
fill="#000000" stroke="none">
<path d="M8895 13980 c-462 -100 -872 -397 -1213 -876 -77 -110 -173 -267
-227 -374 -19 -39 -39 -70 -44 -70 -5 0 -50 30 -100 68 -295 218 -652 393
-962 472 -317 79 -641 81 -907 4 -125 -36 -203 -83 -303 -183 -99 -99 -150
-190 -170 -305 -29 -170 39 -381 169 -527 96 -107 326 -235 529 -293 156 -45
241 -56 436 -56 316 0 579 65 917 226 118 57 251 128 317 171 20 14 23 12 39
-18 50 -97 98 -302 112 -479 5 -58 7 -108 6 -111 -2 -3 -43 -9 -91 -13 -751
-58 -1533 -282 -2218 -635 -1327 -685 -2269 -1773 -2680 -3096 -144 -464 -206
-884 -206 -1386 0 -346 24 -595 87 -909 223 -1116 851 -2044 1794 -2652 847
-546 1926 -848 3280 -918 251 -13 932 -13 1170 0 1103 60 1974 260 2735 630
365 176 636 347 890 559 127 106 386 367 487 491 500 616 807 1372 892 2196
66 640 31 1228 -104 1766 -95 376 -211 691 -380 1029 -254 507 -553 915 -971
1324 -292 286 -599 521 -994 760 -115 70 -518 272 -664 334 -790 331 -1621
503 -2546 526 l-220 6 -8 87 c-15 167 -46 339 -81 443 -18 57 -31 107 -27 111
3 4 38 3 76 -2 96 -13 425 -12 543 1 626 68 1114 366 1342 820 58 116 75 201
67 338 -6 117 -34 212 -89 298 -125 197 -417 301 -683 243z m295 -266 c94 -31
144 -70 185 -145 28 -51 30 -60 30 -169 0 -113 -1 -116 -36 -185 -179 -343
-530 -573 -999 -656 -182 -33 -652 -39 -700 -9 -25 15 144 304 288 490 289
374 622 606 983 685 98 21 160 18 249 -11z m-2977 -749 c247 -56 523 -173 759
-322 131 -83 238 -160 238 -171 0 -12 -196 -122 -322 -181 -289 -136 -517
-192 -783 -192 -165 -1 -280 16 -404 57 -174 58 -349 169 -409 259 -44 67 -76
173 -70 234 13 129 140 264 288 306 121 34 218 44 405 41 151 -3 199 -8 298
-31z m2082 -1665 c708 -46 1328 -180 1925 -417 1130 -449 2020 -1198 2551
-2148 254 -455 452 -1031 524 -1525 28 -192 55 -532 55 -684 0 -311 -40 -696
-101 -991 -253 -1203 -936 -2082 -2024 -2606 -882 -424 -1973 -615 -3400 -596
-515 7 -859 34 -1265 97 -984 154 -1808 475 -2470 963 -934 689 -1472 1839
-1472 3152 0 670 135 1250 437 1870 566 1162 1618 2090 2890 2550 508 184
1040 294 1620 334 176 12 547 13 730 1z"/>
<path d="M5702 8210 c-244 -65 -431 -251 -493 -487 -23 -89 -28 -239 -10 -318
58 -246 229 -434 466 -512 69 -23 97 -26 205 -26 108 0 136 3 205 26 418 138
603 610 389 994 -76 137 -227 260 -377 309 -113 37 -279 43 -385 14z"/>
<path d="M9950 8224 c-228 -41 -406 -170 -506 -368 -144 -281 -74 -630 167
-833 127 -107 269 -157 444 -158 119 0 208 21 309 72 169 85 303 255 351 443
13 50 16 95 13 195 -4 116 -8 138 -35 208 -82 206 -247 360 -453 422 -54 16
-240 28 -290 19z"/>
<path d="M6994 7491 c-47 -21 -90 -71 -133 -151 -45 -83 -64 -177 -59 -290 3
-87 7 -102 45 -181 51 -105 142 -196 239 -240 65 -30 205 -59 280 -59 170 0
356 116 519 323 l30 38 44 -61 c85 -116 224 -227 340 -271 179 -67 442 -9 580
130 158 158 191 382 88 600 -52 113 -133 181 -212 181 -25 0 -41 -9 -69 -40
-49 -55 -48 -88 6 -171 76 -116 96 -214 59 -294 -26 -57 -119 -140 -182 -160
-69 -23 -149 -16 -220 20 -78 40 -189 153 -276 282 -80 119 -104 137 -170 135
-50 -2 -79 -24 -109 -85 -75 -148 -206 -296 -306 -342 -74 -35 -181 -35 -254
-1 -191 89 -230 258 -103 442 21 31 34 63 37 94 4 42 1 50 -31 83 -40 43 -77
48 -143 18z"/>
</g>
</svg>
