<svg xmlns="http://www.w3.org/2000/svg" xmlns:xlink="http://www.w3.org/1999/xlink" id="图层_1" x="0" y="0" version="1.1" viewBox="0 0 50 50" xml:space="preserve" style="enable-background:new 0 0 50 50"><style type="text/css">.st0{fill:url(#SVGID_1_)}.st1{fill:url(#SVGID_2_)}</style><g><g><linearGradient id="SVGID_1_" x1="25.305" x2="26.145" y1="4.923" y2="45.258" gradientTransform="matrix(1 0 0 -1 0 52)" gradientUnits="userSpaceOnUse"><stop offset="0" style="stop-color:#683fff"/><stop offset="1" style="stop-color:#da2aff"/></linearGradient><path d="M6.7,24.1c0-7,1.2-11.5,3.3-17c0.3-1.2,1.2-2.4,2.1-3c1.5-1.2,3-0.9,4.8-0.6c2.7,0.3,5.4,1.5,7.9,3 c4.5,2.7,8.8,5.4,13,8.5c2.1,1.5,4.2,3.3,5.8,5.4c1.5,2.1,1.5,3.9,0.3,6.4c-1.5,3-3.6,5.4-6.7,7.6c-0.9,0.6-2.1,1.2-3,0.3 c-0.9-0.6-1.2-1.8-0.9-3c0.3-1.2,0.6-2.1,1.2-3.3c1.8-4.2,0.6-7.9-2.1-10.9c-2.1-2.7-5.1-4.5-8.8-4.5c-4.5,0-8.8,3-10.3,7.6 C11.9,25.6,14.3,31,18.8,34c1.5,0.9,3,1.2,4.8,1.2c1.2,0,2.4,0,3.6,0c0.9,0,1.8,0.3,2.4,0.9c1.2,0.9,1.2,2.1,0.3,3.3 c-1.2,1.5-2.7,2.4-4.5,3.3c-2.1,1.2-4.2,2.1-6.4,2.7c-4.5,1.2-7.3,0-9.7-3.6C8.6,38.9,6.7,31.3,6.7,24.1z" class="st0"/><linearGradient id="SVGID_2_" x1="23.953" x2="24.793" y1="4.951" y2="45.286" gradientTransform="matrix(1 0 0 -1 0 52)" gradientUnits="userSpaceOnUse"><stop offset="0" style="stop-color:#683fff"/><stop offset="1" style="stop-color:#da2aff"/></linearGradient><path d="M24.3,18.3c3.3,0,5.8,2.7,5.8,6.1c0,3-2.4,5.4-5.4,5.4c-3.3,0-5.8-2.7-5.8-6.1C18.5,20.7,21,18.3,24.3,18.3z" class="st1"/></g></g></svg>