<?xml version="1.0" encoding="utf-8"?>
<!-- Generator: Adobe Illustrator 23.0.1, SVG Export Plug-In . SVG Version: 6.00 Build 0)  -->
<svg version="1.1" id="Capa_1" xmlns="http://www.w3.org/2000/svg" xmlns:xlink="http://www.w3.org/1999/xlink" x="0px" y="0px"
	 viewBox="0 0 312.8 312.8" style="enable-background:new 0 0 312.8 312.8;" xml:space="preserve">
<style type="text/css">
	.st0{fill:#999999;}
</style>
<g>
	<g>
		<path class="st0" d="M289.1,175.8c-2.9-0.7-5.7,0-8.2,1.8c-9.3,7.8-20,14.3-31.8,18.6c-11.1,4.3-23.2,6.4-36,6.4
			c-28.9,0-55.3-11.8-74.2-30.7s-30.7-45.3-30.7-74.2c0-12.1,2.1-23.9,5.7-34.6c3.9-11.4,9.6-21.8,17.1-30.7
			c3.2-3.9,2.5-9.6-1.4-12.8c-2.5-1.8-5.4-2.5-8.2-1.8C91.1,26,64.7,44.2,45.8,68.4C27.6,92.3,16.9,121.9,16.9,154
			c0,38.9,15.7,74.2,41.4,99.9s60.6,41.4,99.9,41.4c32.8,0,63.1-11.4,87.4-30.3c24.6-19.3,42.5-46.7,49.9-78.1
			C297,181.9,294.1,176.9,289.1,175.8z"/>
	</g>
</g>
</svg>
